# File created by Blade
# Date/Time:  Thu Jan 22 16:10:14 2015
# Frame Rate: 120.000 fps
#------------------------------------------------------
:FULLY-SPECIFIED
:DEGREES
2371
root 11.504593 27.281448 -0.354966 65.227199 33.260556 12.161186
RightUpLeg -29.801924 -57.033639 -19.177452
RightLeg -5.317113 -0.000000 0.000000
RightFoot -7.315042 -31.106019 49.048059
RightToeBase 14.970472 -0.000000 -0.000000
LeftUpLeg -109.234220 -4.656186 -14.584757
LeftLeg 85.697706 -0.000000 -0.000000
LeftFoot -35.389338 3.047760 -16.892541
LeftToeBase 5.379003 -0.000000 -0.000000
Spine 62.562157 28.200118 4.237450
RightShoulder 7.598971 -3.161325 -52.417622
RightArm 25.029993 23.077230 36.639533
RightForeArm -21.449191 0.000000 42.041361
RightHand 29.558252 0.000000 -65.061381
RightHandThumb1 -24.326973 -0.000000 -32.862282
LeftShoulder -51.384004 48.114346 -10.574449
LeftArm 14.321551 -13.979537 -74.308835
LeftForeArm -9.871859 -0.000000 -0.516790
LeftHand -34.593724 -0.000000 27.787281
LeftHandThumb1 -26.253704 0.000000 33.147579
Head 14.330366 -21.066886 -24.933171
2372
root 11.507758 27.279264 -0.357234 65.197582 33.249306 12.164879
RightUpLeg -29.751280 -57.030961 -19.234316
RightLeg -5.320876 -0.000000 0.000000
RightFoot -7.290083 -31.112773 49.029570
RightToeBase 15.007903 -0.000000 -0.000000
LeftUpLeg -109.209847 -4.658404 -14.574729
LeftLeg 85.717560 -0.000000 -0.000000
LeftFoot -35.376475 3.068282 -16.847841
LeftToeBase 5.351008 -0.000000 -0.000000
Spine 62.580892 28.186707 4.240410
RightShoulder 7.579076 -3.153445 -52.416649
RightArm 25.116785 23.067190 36.658035
RightForeArm -21.450129 -0.000000 41.957456
RightHand 29.561034 -0.000000 -65.101473
RightHandThumb1 -24.326973 -0.000000 -32.862282
LeftShoulder -51.358394 48.119547 -10.558880
LeftArm 14.343439 -13.899065 -74.299618
LeftForeArm -9.892195 -0.000000 -0.539449
LeftHand -34.549639 -0.000000 28.099506
LeftHandThumb1 -26.253704 0.000000 33.147579
Head 14.302778 -21.182276 -24.916166
2373
root 11.511076 27.276417 -0.358680 65.152419 33.238944 12.153926
RightUpLeg -29.694258 -57.016976 -19.291272
RightLeg -5.316496 -0.000000 0.000000
RightFoot -7.312254 -31.106107 49.056313
RightToeBase 14.997243 -0.000000 -0.000000
LeftUpLeg -109.183156 -4.654117 -14.559070
LeftLeg 85.738162 -0.000000 -0.000000
LeftFoot -35.395003 3.085590 -16.866732
LeftToeBase 5.365125 -0.000000 -0.000000
Spine 62.592547 28.176301 4.230784
RightShoulder 7.582018 -3.143689 -52.415298
RightArm 25.221218 23.076881 36.690466
RightForeArm -21.498093 -0.000000 41.846868
RightHand 29.572212 -0.000000 -65.185542
RightHandThumb1 -24.326973 -0.000000 -32.862282
LeftShoulder -51.354110 48.132218 -10.553105
LeftArm 14.332689 -13.843319 -74.300439
LeftForeArm -9.825848 0.000000 -0.526226
LeftHand -34.526273 -0.000000 28.254359
LeftHandThumb1 -26.253704 0.000000 33.147579
Head 14.304657 -21.217637 -24.879092
2374
root 11.514217 27.272994 -0.360041 65.103075 33.236194 12.138738
RightUpLeg -29.658953 -57.023903 -19.315589
RightLeg -5.312611 -0.000000 0.000000
RightFoot -7.264153 -31.089414 49.013873
RightToeBase 15.019541 -0.000000 -0.000000
LeftUpLeg -109.157152 -4.646136 -14.543259
LeftLeg 85.760007 -0.000000 -0.000000
LeftFoot -35.430002 3.069077 -16.924146
LeftToeBase 5.472464 -0.000000 -0.000000
Spine 62.592873 28.168117 4.222402
RightShoulder 7.606038 -3.129726 -52.400580
RightArm 25.320674 23.104008 36.724139
RightForeArm -21.502375 0.000000 41.729917
RightHand 29.647044 -0.000000 -65.217036
RightHandThumb1 -24.326973 -0.000000 -32.862282
LeftShoulder -51.426400 48.184626 -10.611722
LeftArm 14.382548 -13.714352 -74.287858
LeftForeArm -9.788810 0.000000 -0.545267
LeftHand -34.584096 -0.000000 28.197655
LeftHandThumb1 -26.253704 0.000000 33.147579
Head 14.335120 -21.236717 -24.835223
2375
root 11.517777 27.270119 -0.360980 65.041060 33.219418 12.116606
RightUpLeg -29.620653 -57.017988 -19.353409
RightLeg -5.307089 -0.000000 0.000000
RightFoot -7.218590 -31.081110 48.959736
RightToeBase 15.048973 -0.000000 -0.000000
LeftUpLeg -109.124769 -4.627066 -14.532460
LeftLeg 85.785900 -0.000000 -0.000000
LeftFoot -35.447296 3.096459 -16.927608
LeftToeBase 5.495861 -0.000000 -0.000000
Spine 62.622424 28.178137 4.228035
RightShoulder 7.623443 -3.132855 -52.406808
RightArm 25.406397 23.140559 36.771266
RightForeArm -21.537070 -0.000000 41.620336
RightHand 29.698123 0.000000 -65.251008
RightHandThumb1 -24.326973 -0.000000 -32.862282
LeftShoulder -51.462876 48.229050 -10.645570
LeftArm 14.427457 -13.569243 -74.275741
LeftForeArm -9.816100 -0.000000 -0.576898
LeftHand -34.465948 -0.000000 28.238470
LeftHandThumb1 -26.253704 0.000000 33.147579
Head 14.351111 -21.266796 -24.788606
2376
root 11.520650 27.266570 -0.363084 64.992877 33.207232 12.088090
RightUpLeg -29.585948 -56.989507 -19.386996
RightLeg -5.305097 -0.000000 0.000000
RightFoot -7.207425 -31.083374 48.921593
RightToeBase 14.992320 -0.000000 -0.000000
LeftUpLeg -109.111725 -4.613330 -14.531690
LeftLeg 85.803419 -0.000000 -0.000000
LeftFoot -35.488710 3.122150 -16.973169
LeftToeBase 5.587202 -0.000000 -0.000000
Spine 62.614377 28.184717 4.213504
RightShoulder 7.631677 -3.099391 -52.414386
RightArm 25.522945 23.151916 36.852863
RightForeArm -21.623122 -0.000000 41.492961
RightHand 29.734320 0.000000 -65.299717
RightHandThumb1 -24.326973 -0.000000 -32.862282
LeftShoulder -51.499474 48.262574 -10.690695
LeftArm 14.406805 -13.625835 -74.273390
LeftForeArm -9.630141 0.000000 -0.529784
LeftHand -34.537647 0.000000 28.079990
LeftHandThumb1 -26.253704 0.000000 33.147579
Head 14.368596 -21.286764 -24.747012
2377
root 11.524537 27.262875 -0.363559 64.935282 33.202479 12.070185
RightUpLeg -29.556648 -57.008768 -19.403183
RightLeg -5.295289 -0.000000 0.000000
RightFoot -7.160473 -31.055250 48.882120
RightToeBase 15.060274 -0.000000 -0.000000
LeftUpLeg -109.078334 -4.599868 -14.506451
LeftLeg 85.835186 -0.000000 -0.000000
LeftFoot -35.488083 3.139107 -16.946714
LeftToeBase 5.510291 -0.000000 -0.000000
Spine 62.636745 28.184746 4.223174
RightShoulder 7.643822 -3.066224 -52.402968
RightArm 25.600046 23.148954 36.874815
RightForeArm -21.656510 -0.000000 41.376568
RightHand 29.760631 -0.000000 -65.361882
RightHandThumb1 -24.326973 -0.000000 -32.862282
LeftShoulder -51.516036 48.271463 -10.705142
LeftArm 14.360442 -13.637384 -74.239656
LeftForeArm -9.459591 0.000000 -0.485057
LeftHand -34.654887 -0.000000 27.846399
LeftHandThumb1 -26.253704 0.000000 33.147579
Head 14.362039 -21.378441 -24.719795
2378
root 11.528325 27.259233 -0.364591 64.859658 33.193988 12.049154
RightUpLeg -29.477253 -56.993196 -19.472361
RightLeg -5.282190 -0.000000 0.000000
RightFoot -7.129809 -31.035356 48.827378
RightToeBase 15.007120 -0.000000 -0.000000
LeftUpLeg -109.027230 -4.582402 -14.502025
LeftLeg 85.856399 -0.000000 -0.000000
LeftFoot -35.494714 3.198621 -16.911070
LeftToeBase 5.407149 -0.000000 -0.000000
Spine 62.681756 28.194234 4.235941
RightShoulder 7.711509 -2.956117 -52.351490
RightArm 25.505917 23.069066 36.754366
RightForeArm -21.543837 -0.000000 41.299245
RightHand 29.838753 -0.000000 -65.494462
RightHandThumb1 -24.326973 -0.000000 -32.862282
LeftShoulder -51.575841 48.285690 -10.729021
LeftArm 14.341437 -13.636080 -74.216388
LeftForeArm -9.361979 0.000000 -0.460129
LeftHand -34.677979 -0.000000 27.652519
LeftHandThumb1 -26.253704 0.000000 33.147579
Head 14.357930 -21.454299 -24.665335
